<svg width="399" height="45" viewBox="0 0 399 45" fill="none" xmlns="http://www.w3.org/2000/svg">
<path d="M29.1 17.288C30.22 17.448 31.42 17.704 32.7 18.056C34.012 18.376 35.228 18.872 36.348 19.544C37.468 20.216 38.396 21.08 39.132 22.136C39.9 23.16 40.284 24.456 40.284 26.024C40.284 27.144 40.124 28.136 39.804 29C39.484 29.864 39.068 30.616 38.556 31.256C38.044 31.864 37.452 32.392 36.78 32.84C36.108 33.256 35.436 33.608 34.764 33.896C33.164 34.536 31.34 34.904 29.292 35H1.596V34.616H6.396V1.784H1.596V1.4H26.94C28.828 1.496 30.54 1.816 32.076 2.36C32.716 2.616 33.34 2.92 33.948 3.272C34.556 3.624 35.1 4.072 35.58 4.616C36.06 5.128 36.444 5.736 36.732 6.44C37.052 7.144 37.212 7.96 37.212 8.888C37.212 9.848 37.02 10.712 36.636 11.48C36.252 12.248 35.772 12.952 35.196 13.592C34.62 14.2 33.996 14.728 33.324 15.176C32.652 15.624 32.012 15.992 31.404 16.28C30.796 16.568 30.268 16.792 29.82 16.952C29.404 17.08 29.164 17.144 29.1 17.144V17.288ZM17.388 1.784V17.048H17.916C19.612 17.016 21.116 16.728 22.428 16.184C23.004 15.96 23.564 15.688 24.108 15.368C24.652 15.016 25.132 14.584 25.548 14.072C25.996 13.56 26.348 12.968 26.604 12.296C26.86 11.624 26.988 10.84 26.988 9.944V8.888C26.988 7.128 26.62 5.768 25.884 4.808C25.18 3.848 24.396 3.144 23.532 2.696C22.508 2.184 21.356 1.88 20.076 1.784H17.388ZM19.692 34.616C21.356 34.52 22.828 34.168 24.108 33.56C24.652 33.304 25.196 32.968 25.74 32.552C26.284 32.136 26.764 31.624 27.18 31.016C27.596 30.408 27.932 29.704 28.188 28.904C28.444 28.072 28.572 27.112 28.572 26.024C28.572 24.616 28.348 23.432 27.9 22.472C27.484 21.48 26.956 20.664 26.316 20.024C25.676 19.384 24.972 18.888 24.204 18.536C23.468 18.184 22.764 17.928 22.092 17.768C21.452 17.608 20.908 17.512 20.46 17.48C20.012 17.448 19.772 17.432 19.74 17.432H17.388V34.616H19.692ZM72.6593 35C70.8993 35 69.3953 34.744 68.1473 34.232C66.9313 33.688 65.8593 32.936 64.9313 31.976C64.0353 31.016 63.2513 29.864 62.5793 28.52C61.9073 27.144 61.2353 25.624 60.5633 23.96H49.9553L47.4593 32.744C47.4273 32.84 47.4113 32.952 47.4113 33.08C47.4113 33.176 47.4113 33.272 47.4113 33.368C47.4113 33.72 47.5073 34.024 47.6993 34.28C47.8913 34.504 48.2113 34.616 48.6593 34.616H51.2033V35H41.1713V34.616H43.9073C44.5153 34.616 45.1073 34.424 45.6833 34.04C46.2913 33.624 46.6913 33.08 46.8833 32.408L54.2273 8.168C53.8753 7.56 53.4593 6.888 52.9793 6.152C52.5313 5.384 52.0353 4.68 51.4913 4.04C50.9473 3.4 50.3873 2.872 49.8113 2.456C49.2353 2.008 48.6753 1.784 48.1313 1.784V1.4H56.8193C58.0033 1.4 59.0433 1.624 59.9393 2.072C60.8673 2.488 61.6673 3.032 62.3393 3.704C63.0433 4.344 63.6353 5.064 64.1153 5.864C64.5953 6.664 64.9793 7.416 65.2673 8.12C65.7473 9.272 66.2593 10.536 66.8033 11.912C67.3793 13.288 67.9713 14.728 68.5793 16.232C69.2193 17.704 69.8593 19.192 70.4993 20.696C71.1393 22.2 71.7473 23.64 72.3233 25.016C73.6993 28.28 75.1073 31.608 76.5473 35H72.6593ZM50.0993 23.576H60.3713L54.5153 8.984L50.0993 23.576ZM102.557 13.4C105.629 14.904 107.821 16.6 109.133 18.488C110.477 20.344 111.149 22.44 111.149 24.776C111.149 26.376 110.829 27.832 110.189 29.144C109.549 30.424 108.653 31.544 107.501 32.504C106.381 33.432 105.069 34.152 103.565 34.664C102.061 35.176 100.445 35.432 98.7173 35.432H98.0933C96.5573 35.432 95.0373 35.16 93.5333 34.616C92.0613 34.04 90.5573 33.304 89.0213 32.408C88.9253 32.344 88.7813 32.312 88.5893 32.312C88.2373 32.312 87.9013 32.456 87.5813 32.744C87.2613 33 86.9573 33.304 86.6693 33.656C86.3173 34.04 85.9973 34.488 85.7093 35H85.3253L84.4133 21.32H84.7973C84.8933 21.928 85.0213 22.584 85.1813 23.288C85.3413 23.896 85.5493 24.584 85.8053 25.352C86.0933 26.12 86.4933 26.92 87.0053 27.752C87.5493 28.68 88.1733 29.656 88.8773 30.68C89.6133 31.704 90.4613 32.504 91.4213 33.08C92.9253 33.976 94.4613 34.568 96.0293 34.856C96.5093 34.952 97.0373 35 97.6133 35C98.2533 35 98.9093 34.968 99.5813 34.904C100.285 34.84 100.909 34.696 101.453 34.472C102.221 34.12 102.797 33.72 103.181 33.272C103.565 32.792 103.757 31.992 103.757 30.872C103.757 30.072 103.405 29.272 102.701 28.472C101.997 27.672 101.069 26.872 99.9173 26.072C98.7653 25.24 97.4533 24.392 95.9813 23.528C94.5093 22.664 92.9893 21.768 91.4213 20.84C88.8293 19.272 86.9413 17.544 85.7573 15.656C84.6053 13.768 84.0293 11.672 84.0293 9.368C84.0293 6.648 85.1013 4.616 87.2453 3.272C89.4213 1.896 92.6053 1.208 96.7973 1.208C98.2373 1.208 99.6773 1.48 101.117 2.024C102.557 2.568 103.997 3.208 105.437 3.944C105.629 4.008 105.757 4.04 105.821 4.04C106.173 4.04 106.509 3.912 106.829 3.656C107.181 3.4 107.501 3.096 107.789 2.744C108.141 2.36 108.461 1.912 108.749 1.4H109.133L110.237 11.816H109.853C109.757 11.624 109.613 11.352 109.421 11C109.261 10.68 109.005 10.264 108.653 9.752C108.333 9.208 107.917 8.52 107.405 7.688C107.277 7.496 107.085 7.24 106.829 6.92C106.605 6.6 106.333 6.264 106.013 5.912C105.693 5.56 105.341 5.208 104.957 4.856C104.605 4.504 104.269 4.184 103.949 3.896C102.925 3.288 101.805 2.76 100.589 2.312C99.3733 1.832 98.0933 1.576 96.7493 1.544C96.3333 1.544 95.8693 1.608 95.3573 1.736C94.8453 1.832 94.3653 2.024 93.9173 2.312C93.5013 2.6 93.1333 2.984 92.8133 3.464C92.5253 3.912 92.3813 4.472 92.3813 5.144C92.3813 6.264 93.1653 7.48 94.7333 8.792C96.3333 10.104 98.9413 11.64 102.557 13.4ZM144.132 30.584C144.772 29.688 145.268 28.856 145.62 28.088C145.972 27.32 146.228 26.6 146.388 25.928C146.548 25.256 146.628 24.616 146.628 24.008C146.66 23.4 146.676 22.808 146.676 22.232H147.108V35H144.132H136.164H132.132H121.092H116.82V34.616H121.092V1.784H116.82V1.4H121.092H132.132H135.444H146.388V12.584H145.956C145.956 11.88 145.94 11.24 145.908 10.664C145.876 10.088 145.78 9.528 145.62 8.984C145.492 8.44 145.284 7.88 144.996 7.304C144.708 6.696 144.308 6.024 143.796 5.288C143.22 4.456 142.628 3.8 142.02 3.32C141.412 2.84 140.756 2.488 140.052 2.264C139.38 2.04 138.644 1.912 137.844 1.88C137.076 1.816 136.26 1.784 135.396 1.784H132.132V17.528H134.196C134.772 17.528 135.3 17.512 135.78 17.48C136.26 17.448 136.708 17.368 137.124 17.24C137.572 17.08 137.972 16.856 138.324 16.568C138.676 16.28 139.028 15.88 139.38 15.368C139.924 14.568 140.356 13.768 140.676 12.968C140.996 12.168 141.156 11.288 141.156 10.328H141.444H141.54V25.112H141.444H141.156C141.156 24.184 140.996 23.32 140.676 22.52C140.388 21.72 139.956 20.904 139.38 20.072C138.74 19.144 138.004 18.552 137.172 18.296C136.34 18.04 135.348 17.912 134.196 17.912H132.132V34.616H136.164C137.06 34.616 137.844 34.6 138.516 34.568C139.188 34.504 139.828 34.36 140.436 34.136C141.044 33.88 141.636 33.48 142.212 32.936C142.788 32.392 143.428 31.608 144.132 30.584ZM170.918 1.4C174.598 1.368 177.91 1.928 180.854 3.08C182.102 3.56 183.318 4.216 184.502 5.048C185.686 5.848 186.742 6.872 187.67 8.12C188.598 9.336 189.35 10.808 189.926 12.536C190.502 14.232 190.79 16.216 190.79 18.488C190.79 20.728 190.502 22.68 189.926 24.344C189.35 26.008 188.582 27.448 187.622 28.664C186.694 29.848 185.622 30.824 184.406 31.592C183.222 32.36 182.006 32.984 180.758 33.464C177.814 34.552 174.486 35.064 170.774 35H168.758H157.91H153.11V34.616H157.91V1.784H153.11V1.4H157.91H168.758H170.918ZM179.654 16.904C179.654 14.952 179.526 13.24 179.27 11.768C179.014 10.296 178.678 9.016 178.262 7.928C177.878 6.84 177.414 5.944 176.87 5.24C176.358 4.504 175.83 3.912 175.286 3.464C174.006 2.408 172.55 1.848 170.918 1.784H168.758V34.616H170.774C172.438 34.488 173.91 33.864 175.19 32.744C175.734 32.264 176.278 31.672 176.822 30.968C177.366 30.232 177.846 29.336 178.262 28.28C178.678 27.192 179.014 25.928 179.27 24.488C179.526 23.016 179.654 21.336 179.654 19.448V16.904ZM242.64 17.288C243.76 17.448 244.96 17.704 246.24 18.056C247.552 18.376 248.768 18.872 249.888 19.544C251.008 20.216 251.936 21.08 252.672 22.136C253.44 23.16 253.824 24.456 253.824 26.024C253.824 27.144 253.664 28.136 253.344 29C253.024 29.864 252.608 30.616 252.096 31.256C251.584 31.864 250.992 32.392 250.32 32.84C249.648 33.256 248.976 33.608 248.304 33.896C246.704 34.536 244.88 34.904 242.832 35H215.136V34.616H219.936V1.784H215.136V1.4H240.48C242.368 1.496 244.08 1.816 245.616 2.36C246.256 2.616 246.88 2.92 247.488 3.272C248.096 3.624 248.64 4.072 249.12 4.616C249.6 5.128 249.984 5.736 250.272 6.44C250.592 7.144 250.752 7.96 250.752 8.888C250.752 9.848 250.56 10.712 250.176 11.48C249.792 12.248 249.312 12.952 248.736 13.592C248.16 14.2 247.536 14.728 246.864 15.176C246.192 15.624 245.552 15.992 244.944 16.28C244.336 16.568 243.808 16.792 243.36 16.952C242.944 17.08 242.704 17.144 242.64 17.144V17.288ZM230.928 1.784V17.048H231.456C233.152 17.016 234.656 16.728 235.968 16.184C236.544 15.96 237.104 15.688 237.648 15.368C238.192 15.016 238.672 14.584 239.088 14.072C239.536 13.56 239.888 12.968 240.144 12.296C240.4 11.624 240.528 10.84 240.528 9.944V8.888C240.528 7.128 240.16 5.768 239.424 4.808C238.72 3.848 237.936 3.144 237.072 2.696C236.048 2.184 234.896 1.88 233.616 1.784H230.928ZM233.232 34.616C234.896 34.52 236.368 34.168 237.648 33.56C238.192 33.304 238.736 32.968 239.28 32.552C239.824 32.136 240.304 31.624 240.72 31.016C241.136 30.408 241.472 29.704 241.728 28.904C241.984 28.072 242.112 27.112 242.112 26.024C242.112 24.616 241.888 23.432 241.44 22.472C241.024 21.48 240.496 20.664 239.856 20.024C239.216 19.384 238.512 18.888 237.744 18.536C237.008 18.184 236.304 17.928 235.632 17.768C234.992 17.608 234.448 17.512 234 17.48C233.552 17.448 233.312 17.432 233.28 17.432H230.928V34.616H233.232ZM288.363 21.176C289.259 22.2 290.203 23.48 291.195 25.016C292.219 26.52 293.211 27.992 294.171 29.432C295.131 30.872 295.995 32.104 296.763 33.128C297.563 34.152 298.187 34.664 298.635 34.664V35H290.091C288.395 35 286.923 34.552 285.675 33.656C284.459 32.728 283.339 31.576 282.315 30.2C281.323 28.824 280.395 27.352 279.531 25.784C278.667 24.216 277.755 22.76 276.795 21.416C275.771 19.976 275.099 18.968 274.779 18.392C274.459 17.784 274.187 17.464 273.963 17.432V34.616H278.763V35H258.555V34.616H263.403V1.784H258.555V1.4H283.707C285.691 1.56 287.467 1.944 289.035 2.552C289.707 2.84 290.363 3.192 291.003 3.608C291.643 3.992 292.219 4.488 292.731 5.096C293.243 5.672 293.643 6.36 293.931 7.16C294.251 7.928 294.411 8.824 294.411 9.848C294.411 11.64 293.979 13.048 293.115 14.072C292.283 15.064 291.307 15.816 290.187 16.328C289.067 16.808 287.931 17.112 286.779 17.24C285.627 17.368 284.763 17.432 284.187 17.432H283.563L277.323 17.48C278.859 17.512 280.331 17.656 281.739 17.912C282.955 18.168 284.171 18.552 285.387 19.064C286.635 19.544 287.627 20.248 288.363 21.176ZM273.963 1.832V17.048H276.891C278.107 17.048 279.115 16.968 279.915 16.808C280.747 16.616 281.403 16.296 281.883 15.848C282.395 15.368 282.747 14.744 282.939 13.976C283.163 13.176 283.275 12.152 283.275 10.904V9.848C283.275 8.088 282.875 6.68 282.075 5.624C281.275 4.536 280.395 3.72 279.435 3.176C278.315 2.536 277.051 2.088 275.643 1.832H273.963ZM318.889 34.616H323.689V35H303.049V34.616H307.897V1.784H303.049V1.4H323.689V1.784H318.889V34.616ZM358.234 30.584C358.874 29.688 359.37 28.856 359.722 28.088C360.074 27.32 360.33 26.6 360.49 25.928C360.65 25.256 360.73 24.616 360.73 24.008C360.762 23.4 360.778 22.808 360.778 22.232H361.21V35H358.234H350.266H346.234H335.194H330.922V34.616H335.194V1.784H330.922V1.4H335.194H346.234H349.546H360.49V12.584H360.058C360.058 11.88 360.042 11.24 360.01 10.664C359.978 10.088 359.882 9.528 359.722 8.984C359.594 8.44 359.386 7.88 359.098 7.304C358.81 6.696 358.41 6.024 357.898 5.288C357.322 4.456 356.73 3.8 356.122 3.32C355.514 2.84 354.858 2.488 354.154 2.264C353.482 2.04 352.746 1.912 351.946 1.88C351.178 1.816 350.362 1.784 349.498 1.784H346.234V17.528H348.298C348.874 17.528 349.402 17.512 349.882 17.48C350.362 17.448 350.81 17.368 351.226 17.24C351.674 17.08 352.074 16.856 352.426 16.568C352.778 16.28 353.13 15.88 353.482 15.368C354.026 14.568 354.458 13.768 354.778 12.968C355.098 12.168 355.258 11.288 355.258 10.328H355.546H355.642V25.112H355.546H355.258C355.258 24.184 355.098 23.32 354.778 22.52C354.49 21.72 354.058 20.904 353.482 20.072C352.842 19.144 352.106 18.552 351.274 18.296C350.442 18.04 349.45 17.912 348.298 17.912H346.234V34.616H350.266C351.162 34.616 351.946 34.6 352.618 34.568C353.29 34.504 353.93 34.36 354.538 34.136C355.146 33.88 355.738 33.48 356.314 32.936C356.89 32.392 357.53 31.608 358.234 30.584ZM388.491 35H372.363H368.091V34.616H372.363V1.784H368.091V1.4H372.363H383.403H387.291H398.235V12.584H397.803C397.803 11.88 397.787 11.24 397.755 10.664C397.723 10.088 397.627 9.528 397.467 8.984C397.339 8.44 397.131 7.88 396.843 7.304C396.555 6.696 396.155 6.024 395.643 5.288C395.067 4.456 394.475 3.8 393.867 3.32C393.259 2.84 392.603 2.488 391.899 2.264C391.227 2.04 390.491 1.912 389.691 1.88C388.923 1.816 388.107 1.784 387.243 1.784H383.403V17.528H385.467C386.043 17.528 386.587 17.512 387.099 17.48C387.611 17.448 388.091 17.368 388.539 17.24C388.987 17.08 389.403 16.856 389.787 16.568C390.171 16.28 390.539 15.88 390.891 15.368C391.435 14.568 391.867 13.768 392.187 12.968C392.507 12.168 392.667 11.288 392.667 10.328H392.955H393.051V25.112H392.955H392.667C392.667 24.184 392.507 23.32 392.187 22.52C391.899 21.72 391.467 20.904 390.891 20.072C390.251 19.144 389.467 18.552 388.539 18.296C387.643 18.04 386.619 17.912 385.467 17.912H383.403V34.568L388.491 34.616V35Z" fill="#292423"/>
</svg>
